<svg width="92" height="37" viewBox="0 0 92 37" fill="none" xmlns="http://www.w3.org/2000/svg">
<path id="Vector" d="M91.0173 37V0H0V37H91.0173ZM36.5968 3.56944L30.3157 33.3534H20.4483L14.2501 12.7471H14.1673L10.0458 33.3534H2.56719L8.89916 3.56944H18.7921L24.8692 24.2208H24.952L29.1118 3.56944H36.5968ZM64.7976 3.56944L58.6376 33.3534H50.694L53.3249 20.5999H43.9352L41.3043 33.3534H33.3607L39.5207 3.56944H47.4579L45.1264 14.9659H54.5097L56.8476 3.56944H64.7976ZM87.6093 4.3798L85.6918 10.3096C84.163 9.58926 82.0799 8.94611 79.1496 8.94611C76.0091 8.94611 73.4611 9.40918 73.4611 11.8017C73.4611 16.0207 84.972 14.445 84.972 23.494C84.972 31.7262 77.366 33.8615 70.4862 33.8615C67.4285 33.8615 63.8994 33.1347 61.3131 32.3179L63.1796 26.2595C64.7466 27.2885 67.8935 27.9703 70.4862 27.9703C72.9514 27.9703 76.8118 27.5008 76.8118 24.4266C76.8118 19.648 65.3008 21.4359 65.3008 13.0365C65.3008 5.35095 72.015 3.0485 78.5126 3.0485C82.1691 3.06136 85.609 3.44724 87.6093 4.3798Z" fill="#005EB8"/>
</svg>
