<svg width="180" height="74" viewBox="0 0 180 74" fill="none" xmlns="http://www.w3.org/2000/svg">
<rect width="180" height="73" fill="white"/>
<path d="M180 73.1729V0H0V73.1729H180ZM72.3754 7.05909L59.9538 65.9612H40.4395L28.1817 25.2092H28.0179L19.867 65.9612H5.07699L17.5994 7.05909H37.1641L49.1825 47.9001H49.3463L57.5728 7.05909H72.3754ZM128.147 7.05909L115.964 65.9612H100.255L105.458 40.7392H86.8883L81.6853 65.9612H65.9756L78.1579 7.05909H93.855L89.2441 29.5973H107.801L112.424 7.05909H128.147ZM173.26 8.6617L169.468 20.3887C166.445 18.9642 162.325 17.6922 156.53 17.6922C150.319 17.6922 145.28 18.608 145.28 23.3395C145.28 31.6832 168.045 28.5671 168.045 46.4628C168.045 62.7432 153.003 66.966 139.397 66.966C133.35 66.966 126.37 65.5287 121.256 63.9134L124.947 51.932C128.046 53.9671 134.269 55.3153 139.397 55.3153C144.272 55.3153 151.906 54.3868 151.906 48.3071C151.906 38.8568 129.142 42.3927 129.142 25.7816C129.142 10.5823 142.42 6.02885 155.27 6.02885C162.501 6.05428 169.304 6.81743 173.26 8.6617Z" fill="#005EB8"/>
</svg>
