<svg width="916" height="372" viewBox="0 0 916 372" fill="none" xmlns="http://www.w3.org/2000/svg">
<rect width="914.919" height="372" fill="white"/>
<path d="M915.093 372V0H0V372H915.093ZM367.946 35.8874L304.796 335.337H205.588L143.271 128.16H142.439L101.001 335.337H25.8106L89.4726 35.8874H188.936L250.037 243.517H250.869L292.691 35.8874H367.946V35.8874ZM651.479 35.8874L589.546 335.337H509.68L536.131 207.112H441.727L415.276 335.337H335.41L397.343 35.8874H477.145L453.704 150.468H548.044L571.549 35.8874H651.479V35.8874ZM880.828 44.0348L861.55 103.653C846.179 96.4109 825.236 89.9447 795.775 89.9447C764.2 89.9447 738.581 94.6004 738.581 118.655C738.581 161.073 854.313 145.231 854.313 236.21C854.313 318.977 777.842 340.445 708.672 340.445C677.93 340.445 642.448 333.138 616.445 324.926L635.211 264.015C650.966 274.361 682.605 281.215 708.672 281.215C733.458 281.215 772.27 276.494 772.27 245.586C772.27 197.542 656.538 215.518 656.538 131.07C656.538 53.7987 724.043 30.6497 789.37 30.6497C826.133 30.7791 860.718 34.6588 880.828 44.0348Z" fill="#005EB8"/>
</svg>
